/* XPM */
static char *_2471fd118e04925cc3bd7553ff420640mNiVJq2UBDkGEIz[] = {
/* columns rows colors chars-per-pixel */
"10 10 60 1 ",
"  c black",
". c #C4B2BD",
"X c #AF8E9F",
"o c #AF93A2",
"O c #AF91A0",
"+ c #B091A1",
"@ c #463641",
"# c #7D6372",
"$ c #826877",
"% c #896A7C",
"& c #7C5F71",
"* c #8B707F",
"= c #7E6172",
"- c #674960",
"; c #6B4E65",
": c #5F3F5B",
"> c #654761",
", c #5F3F5C",
"< c #6A4A65",
"1 c #644460",
"2 c #684763",
"3 c #64445E",
"4 c #684964",
"5 c #523B49",
"6 c #4D3847",
"7 c #533A4C",
"8 c #5A4153",
"9 c #321934",
"0 c #2C162C",
"q c #473242",
"w c #483343",
"e c #8D7382",
"r c #6B4E63",
"t c #6C4D64",
"y c #806374",
"u c #6C4E64",
"i c #532E58",
"p c #55305B",
"a c #6B4E64",
"s c #66435E",
"d c #453763",
"f c #433761",
"g c #66445D",
"h c #674561",
"j c #3F2F53",
"k c #403053",
"l c #6B4963",
"z c #6D4A68",
"x c None",
"c c #523157",
"v c #6A4765",
"b c #6C4C66",
"n c #522A57",
"m c #522B57",
"M c #684964",
"N c #57414E",
"B c #2D162E",
"V c #281427",
"C c #493643",
"Z c white",
/* pixels */
"  .XoO+@  ",
"  #$  %&  ",
"  *erty=  ",
"  -uipa;  ",
"  :sdfg>  ",
"  ,hjkl<  ",
"  1zxcv2  ",
"  3bnmM4  ",
"  5NBVC6  ",
"  7890qw  "
};
