/* XPM */
static char *edbb87eb2da94c41f8eace0eb8b3d9c5lFKhujLzRMgDLCNB[] = {
/* columns rows colors chars-per-pixel */
"10 10 100 2 ",
"   c #9938F5",
".  c #9A39F8",
"X  c #5016B0",
"o  c #3A1587",
"O  c black",
"+  c #2C2F2B",
"@  c #9838F6",
"#  c #9F40F4",
"$  c #A548F1",
"%  c #A448F0",
"&  c #A749F2",
"*  c #A040F5",
"=  c #9E3AF9",
"-  c #4E5346",
";  c #515250",
":  c #50514F",
">  c #40463C",
",  c #9637F6",
"<  c #5417B6",
"1  c #33176D",
"2  c #423D4B",
"3  c #38323E",
"4  c #3F3347",
"5  c #4C3B55",
"6  c #474149",
"7  c #1D221C",
"8  c #9E40F4",
"9  c #591BB9",
"0  c None",
"q  c #4E365E",
"w  c #3D3E3A",
"e  c #A447F1",
"r  c #6023BC",
"t  c #482C65",
"y  c #3F3C3C",
"u  c #A544F5",
"i  c #5B2BAD",
"p  c #4B2D71",
"a  c #413F3E",
"s  c #A647F3",
"d  c #6325BD",
"f  c #502E7A",
"g  c #43423F",
"h  c #9E3FF4",
"j  c #5F1FC0",
"k  c #522C82",
"l  c #42423E",
"z  c #A03BFD",
"x  c #591ABB",
"c  c #4F2A7F",
"v  c #41423C",
"b  c black",
"n  c #4F1E78",
"m  c #541AB0",
"M  c #2C0975",
"N  c #150535",
"B  c #05040E",
"V  c #0C0429",
"C  c #1B064B",
"Z  c #341C53",
"A  c #292926",
"S  c black",
"D  c #200C31",
"F  c #46168E",
"G  c #14033B",
"H  c black",
"J  c black",
"K  c black",
"L  c black",
"P  c black",
"I  c #21133B",
"U  c #171519",
"Y  c #191525",
"T  c #2B1A4D",
"R  c #331675",
"E  c #1E1630",
"W  c #1A1B1B",
"Q  c #1D1B34",
"!  c #261B59",
"~  c #222749",
"^  c #1B132B",
"/  c #18181C",
"(  c #1E1841",
")  c #2C196C",
"_  c #3C187F",
"`  c #1A102D",
"'  c #14141C",
"]  c #1D1449",
"[  c #31177B",
"{  c #3D108C",
"}  c #190D2F",
"|  c #0F0F1B",
" . c #1B114D",
".. c #331384",
"X. c #340C83",
"o. c #180A35",
"O. c #0B0918",
"+. c #160B4A",
"@. c #300E82",
"#. c white",
/* pixels */
"  . X o - ; : > O + ",
"@ , < 1 2 3 4 5 6 7 ",
"# 8 9 0 I U Y T q w ",
"$ e r R E W Q ! t y ",
"% u i ~ ^ / ( ) p a ",
"& s d _ ` ' ] [ f g ",
"* h j { } |  ...k l ",
"= z x X.o.O.+.@.c v ",
"b n m M N B V C Z A ",
"S D F G H J K L P S "
};
