/* XPM */
static char *_07c8c0feab945e5d2f4508e8d0628a7YWNPcpkTMypaGRh7[] = {
/* columns rows colors chars-per-pixel */
"10 10 100 2 ",
"   c #453B00",
".  c #005000",
"X  c #204400",
"o  c #037100",
"O  c #1B7A00",
"+  c #605500",
"@  c #446A00",
"#  c #737D00",
"$  c #0F9900",
"%  c #179100",
"&  c #1C9500",
"*  c #129B00",
"=  c #159900",
"-  c #199B00",
";  c #298500",
":  c #268F00",
">  c #328600",
",  c #3F8100",
"<  c #279A00",
"1  c #39A300",
"2  c #38A403",
"3  c #598900",
"4  c #5B9C00",
"5  c #5E9C00",
"6  c #6C8700",
"7  c #719100",
"8  c #49AA00",
"9  c #5AA900",
"0  c #73AB00",
"q  c #6BE90B",
"w  c #6FF00C",
"e  c #66E719",
"r  c #62EA1C",
"t  c #70E713",
"y  c #73F410",
"u  c #77F414",
"i  c #6BE224",
"p  c #6BEB24",
"a  c #6EE82D",
"s  c #6FF727",
"d  c #6FE036",
"f  c #7CE543",
"g  c #898603",
"h  c #8C8400",
"j  c #908800",
"k  c #908900",
"l  c #918A00",
"z  c #938A00",
"x  c #958D00",
"c  c #938A09",
"v  c #949E00",
"b  c #9B910E",
"n  c #A39F17",
"m  c #93B200",
"M  c #89C400",
"N  c #B6C90D",
"B  c #A3C111",
"V  c #B9CC12",
"C  c #BFD312",
"Z  c #BDD016",
"A  c #84F60B",
"S  c #85FA0D",
"D  c #85ED14",
"F  c #86F211",
"G  c #88FD10",
"H  c #8EFE14",
"J  c #8DF11F",
"K  c #9BFB11",
"L  c #9EFA13",
"P  c #9DFD13",
"I  c #A3FF17",
"U  c #A7FF1D",
"Y  c #B2F617",
"T  c #B2F917",
"R  c #B6FD1B",
"E  c #B8FC1B",
"W  c #A5D823",
"Q  c #82F624",
"!  c #80F02C",
"~  c #8BEF3D",
"^  c #96F036",
"/  c #A9FE27",
"(  c #AEFF2D",
")  c #B2FA3F",
"_  c #C2C222",
"`  c #C7C825",
"'  c #CCCD27",
"]  c #C8C828",
"[  c #C7D621",
"{  c #CDDC29",
"}  c #D9D93B",
"|  c #D9D83F",
" . c #C8F320",
".. c #CEF828",
"X. c #CFF929",
"o. c #D4FF2C",
"O. c #E6F34C",
"+. c #EDEA5D",
"@. c #E7F351",
"#. c #F1EE63",
/* pixels */
"o < % - * $ = & : . ",
"2 d a p r s e i f O ",
"1 ! t q w y u Q ~ ; ",
"8 J F A G S H D ^ > ",
"9 ( U I K P L / ) , ",
"0 M 4 E T R Y 5 W 3 ",
"m 7 @ X.X.o. .X B 6 ",
"v O.{ Z V N C [ @.# ",
"n +.| _ ] ` ' } #.g ",
"+ b j j x j j h c   "
};
