/* XPM */
static char *_6410107e979471f9a884473ffc9827au4DJPvBUQmBk9uL5[] = {
/* columns rows colors chars-per-pixel */
"100 100 2 1 ",
"  c black",
". c white",
/* pixels */
"                                                  ..................................................",
"                                                  ..................................................",
"                                                  ..................................................",
"                                                  ..................................................",
"                                                  ..................................................",
"                                                  ..................................................",
"                                                  ..................................................",
"                                                  ..................................................",
"                                                  ..................................................",
"                                                  ..................................................",
"                                                  ..................................................",
"                                                  ..................................................",
"                                                  ..................................................",
"                                                  ..................................................",
"                                                  ..................................................",
"                                                  ..................................................",
"                                                  ..................................................",
"                                                  ..................................................",
"                                                  ..................................................",
"                                                  ..................................................",
"                                                  ..................................................",
"                                                  ..................................................",
"                                                  ..................................................",
"                                                  ..................................................",
"                                                  ..................................................",
"                                                  ..................................................",
"                                                  ..................................................",
"                                                  ..................................................",
"                                                  ..................................................",
"                                                  ..................................................",
"                                                  ..................................................",
"                                                  ..................................................",
"                                                  ..................................................",
"                                                  ..................................................",
"                                                  ..................................................",
"                                                  ..................................................",
"                                                  ..................................................",
"                                                  ..................................................",
"                                                  ..................................................",
"                                                  ..................................................",
"                                                  ..................................................",
"                                                  ..................................................",
"                                                  ..................................................",
"                                                  ..................................................",
"                                                  ..................................................",
"                                                  ..................................................",
"                                                  ..................................................",
"                                                  ..................................................",
"                                                  ..................................................",
"                                                  ..................................................",
"                                                  ..................................................",
"                                                  ..................................................",
"                                                  ..................................................",
"                                                  ..................................................",
"                                                  ..................................................",
"                                                  ..................................................",
"                                                  ..................................................",
"                                                  ..................................................",
"                                                  ..................................................",
"                                                  ..................................................",
"                                                  ..................................................",
"                                                  ..................................................",
"                                                  ..................................................",
"                                                  ..................................................",
"                                                  ..................................................",
"                                                  ..................................................",
"                                                  ..................................................",
"                                                  ..................................................",
"                                                  ..................................................",
"                                                  ..................................................",
"                                                  ..................................................",
"                                                  ..................................................",
"                                                  ..................................................",
"                                                  ..................................................",
"                                                  ..................................................",
"                                                  ..................................................",
"                                                  ..................................................",
"                                                  ..................................................",
"                                                  ..................................................",
"                                                  ..................................................",
"                                                  ..................................................",
"                                                  ..................................................",
"                                                  ..................................................",
"                                                  ..................................................",
"                                                  ..................................................",
"                                                  ..................................................",
"                                                  ..................................................",
"                                                  ..................................................",
"                                                  ..................................................",
"                                                  ..................................................",
"                                                  ..................................................",
"                                                  ..................................................",
"                                                  ..................................................",
"                                                  ..................................................",
"                                                  ..................................................",
"                                                  ..................................................",
"                                                  ..................................................",
"                                                  ..................................................",
"                                                  ..................................................",
"                                                  .................................................."
};
